<?xml version="1.0" encoding="UTF-8" standalone="no"?>
<!-- Gnu Emacs Icon

   Copyright (C) 2008, 2009
   Free Software Foundation, Inc.

   This file is part of GNU Emacs.

   GNU Emacs is free software: you can redistribute it and/or modify
   it under the terms of the GNU General Public License as published by
   the Free Software Foundation; either version 3 of the License, or
   (at your option) any later version.

   GNU Emacs is distributed in the hope that it will be useful,
   but WITHOUT ANY WARRANTY; without even the implied warranty of
   MERCHANTABILITY or FITNESS FOR A PARTICULAR PURPOSE.  See the
   GNU General Public License for more details.

   You should have received a copy of the GNU General Public License
   along with GNU Emacs.  If not, see <http://www.gnu.org/licenses/>.

-->

<!-- Created with Inkscape (http://www.inkscape.org/) -->

<!-- And cleaned up in Emacs -->

<svg
   xmlns:svg="http://www.w3.org/2000/svg"
   xmlns="http://www.w3.org/2000/svg"
   xmlns:xlink="http://www.w3.org/1999/xlink"
   version="1.0"
   width="48"
   height="48"
   viewBox="0.171 0.201 512 512"
   id="svg4768"
   xml:space="preserve">
<defs id="defs4770">
  <linearGradient id="linearGradient3872">
    <stop id="stop3874" style="stop-color:#6376e6;stop-opacity:0.50196081;" offset="0" />
    <stop id="stop3876" style="stop-color:#222989;stop-opacity:0.75294119;" offset="0.50094414" />
    <stop id="stop3878" style="stop-color:#00003d;stop-opacity:1" offset="1" />
  </linearGradient>
  <linearGradient id="pen_main_linearGradient">
    <stop id="stop3296" style="stop-color:#6376e6;stop-opacity:1" offset="0" />
    <stop id="stop3302" style="stop-color:#222989;stop-opacity:1" offset="0.50094414" />
    <stop id="stop3298" style="stop-color:#00003d;stop-opacity:1" offset="1" />
  </linearGradient>
  <linearGradient id="pen_shadow_linearGradient">
    <stop id="stop3286" style="stop-color:#000000;stop-opacity:1" offset="0" />
    <stop id="stop3292" style="stop-color:#000000;stop-opacity:0.49803922" offset="0.84845906" />
    <stop id="stop3288" style="stop-color:#000000;stop-opacity:0" offset="1" />
  </linearGradient>
  <linearGradient id="pen_clip_linearGradient">
    <stop id="stop3244" style="stop-color:#282828;stop-opacity:1" offset="0" />
    <stop id="stop3252" style="stop-color:#808080;stop-opacity:1" offset="0.39253417" />
    <stop id="stop3246" style="stop-color:#d9d9d9;stop-opacity:1" offset="1" />
  </linearGradient>
  <linearGradient id="pen_ring_linearGradient">
    <stop id="stop3204" style="stop-color:#2b2b2b;stop-opacity:1" offset="0" />
    <stop id="stop3250" style="stop-color:#828383;stop-opacity:1" offset="0.5" />
    <stop id="stop3206" style="stop-color:#dadbdb;stop-opacity:1" offset="1" />
  </linearGradient>
  <linearGradient id="ball_highlight_linearGradient">
    <stop id="stop4968" style="stop-color:#b6b3d8;stop-opacity:1" offset="0" />
    <stop id="stop4970" style="stop-color:#b6b3d8;stop-opacity:0" offset="1" />
  </linearGradient>
  <linearGradient id="ball_shadow_linearGradient">
    <stop id="stop4940" style="stop-color:#000000;stop-opacity:1" offset="0" />
    <stop id="stop4942" style="stop-color:#000000;stop-opacity:0" offset="1" />
  </linearGradient>
  <linearGradient id="ball_main_linearGradient">
    <stop id="stop4900" style="stop-color:#bab8db;stop-opacity:1" offset="0" />
    <stop id="stop4902" style="stop-color:#5955a9;stop-opacity:0.99159664" offset="1" />
  </linearGradient>
  <radialGradient id="ball_main_radialGradient"
		  cx="20.951529"
		  cy="-108.96888"
		  r="266.76535"
		  fx="20.951529"
		  fy="-108.96888"
		  xlink:href="#ball_main_linearGradient"
		  gradientUnits="userSpaceOnUse"
		  gradientTransform="matrix(0.6817439,0,0,0.5905355,-3.8523706,-28.935273)"
		  />
  <radialGradient id="ball_shadow_radialGradient"
		  cx="233.8876"
		  cy="471.26172"
		  r="170.49393"
		  fx="233.8876"
		  fy="471.26172"
		  xlink:href="#ball_shadow_linearGradient"
		  gradientUnits="userSpaceOnUse"
		  gradientTransform="matrix(1,0,0,0.1854103,0,383.88493)" />
  <radialGradient id="ball_highlight_radialGradient"
		  cx="299.70135"
		  cy="371.76376"
		  r="76.696358"
		  fx="299.70135"
		  fy="371.76376"
		  xlink:href="#ball_highlight_linearGradient"
		  gradientUnits="userSpaceOnUse"
		  gradientTransform="matrix(1,0,0,0.9121621,0,32.654948)" />
  <radialGradient id="pen_ring_tip_main_radialGradient"
		  cx="289.44067"
		  cy="390.45248"
		  r="17.67668"
		  fx="289.44067"
		  fy="390.45248"
		  xlink:href="#pen_ring_linearGradient"
		  gradientUnits="userSpaceOnUse"
		  gradientTransform="matrix(0.414705,0.3300575,-0.5059004,0.6356454,346.95314,49.479585)"
		  />
  <radialGradient id="pen_ring_clip_radialGradient"
		  cx="283.50717"
		  cy="382.14804"
		  r="17.67668"
		  fx="283.50717"
		  fy="382.14804"
		  xlink:href="#pen_ring_linearGradient"
		  gradientUnits="userSpaceOnUse"
		  gradientTransform="matrix(0.414705,0.3300575,-0.5059004,0.6356454,448.41009,-65.398074)"
		  />
  <radialGradient id="pen_clip_radialGradient"
		  cx="418.45551"
		  cy="181.18982"
		  r="63.068935"
		  fx="418.45551"
		  fy="181.18982"
		  xlink:href="#pen_clip_linearGradient"
		  gradientUnits="userSpaceOnUse"
		  gradientTransform="matrix(-0.06556501,-0.05972176,1.6871024,-1.8521705,171.90774,540.51473)"
		  />
  <radialGradient id="pen_shadow_radialGradient"
		  cx="284.4671"
		  cy="-158.17821"
		  r="110.2972"
		  fx="284.4671"
		  fy="-158.17821"
		  xlink:href="#pen_shadow_linearGradient"
		  gradientUnits="userSpaceOnUse"
		  gradientTransform="matrix(-1.2497569,1.3798305,-0.09628946,-0.07297448,674.3826,-70.590682)"
		  />
  <radialGradient
      id="pen_main_radialGradient"
      cx="425.51019"
      cy="356.62274"
      r="143.34167"
      fx="425.51019"
      fy="356.62274"
      xlink:href="#pen_main_linearGradient"
      gradientUnits="userSpaceOnUse"
      gradientTransform="matrix(-0.1008165,-0.08087232,1.0745309,-1.3395252,13.843287,784.79288)"
      />
  <radialGradient
      xlink:href="#ball_main_linearGradient"
      id="radialGradient3061"
      gradientUnits="userSpaceOnUse"
      gradientTransform="matrix(0.11128458,0.59334048,-0.48709392,0.0913574,265.16077,221.20732)"
      cx="20.951529"
      cy="-108.96888"
      fx="20.951529"
      fy="-108.96888"
      r="266.76535" />
  <radialGradient
      xlink:href="#linearGradient3872"
      id="radialGradient3862"
      cx="34.140846"
      cy="34.366196"
      fx="34.140846"
      fy="34.366196"
      r="4.7253523"
      gradientUnits="userSpaceOnUse" />
</defs>
<g id="ball">
  <path id="ball_shadow"
	d="M 404.38153,471.26172 C 404.40061,488.72268 328.06229,502.87946 233.8876,502.87946 C 139.71291,502.87946 63.374595,488.72268 63.393677,471.26172 C 63.374595,453.80076 139.71291,439.64398 233.8876,439.64398 C 328.06229,439.64398 404.40061,453.80076 404.38153,471.26172 z"
	transform="matrix(1.3434649,0,0,1.3934426,-81.886873,-193.70595)"
	style="opacity:1;fill:url(#ball_shadow_radialGradient);fill-opacity:1;stroke:#7b0000;stroke-width:0;stroke-miterlimit:4;stroke-dasharray:none;stroke-opacity:1" />
  <path id="ball_main"
	d="m 277.19656,7.985198 c 0,157.044512 -119.43492,284.354252 -266.76535,284.354252 -147.33043,0 -266.76535,-127.30974 -266.76535,-284.354252 0,-157.044518 119.43492,-284.354248 266.76535,-284.354248 147.33043,0 266.76535,127.30973 266.76535,284.354248 z"
	style="fill:url(#ball_main_radialGradient);fill-opacity:1;stroke:#7b0000;stroke-width:0;stroke-miterlimit:4;stroke-opacity:1;stroke-dasharray:none"
	transform="matrix(0.8855031,0,0,0.8392166,227.80221,232.6491)" />
  <path id="ball_highlight"
      d="m 376.39771,371.76376 c 0.0118,38.64521 -34.32975,69.97908 -76.69636,69.97908 -42.3666,0 -76.7082,-31.33387 -76.69635,-69.97908 -0.0118,-38.64521 34.32975,-69.97908 76.69635,-69.97908 42.36661,0 76.70821,31.33387 76.69636,69.97908 l 0,0 z"
      style="fill:url(#ball_highlight_radialGradient);fill-opacity:1;stroke:#7b0000;stroke-width:0;stroke-miterlimit:4;stroke-opacity:1;stroke-dasharray:none"
      transform="matrix(1.4594595,0,0,1,-195.74111,-13.473684)" />
  <path id="ball_E"
	d="m 46.801057,170.99495 c 0,0 -2.122737,21.77224 -0.395219,49.89969 0.699602,11.39092 3.791191,54.65066 10.008516,87.09705 0,0 7.372198,39.55439 14.567305,60.80199 7.528519,22.23217 14.09634,34.39578 23.7105,40.04758 2.00547,-0.18194 9.044711,1.90191 13.573071,-8.13809 11.57723,-25.66833 10.40785,-55.8253 13.25372,-115.36135 4.02511,-66.00009 15.66653,-87.68195 24.8833,-99.15157 9.33276,-10.98554 34.17745,-4.67666 54.91589,44.00742 11.08031,24.54041 30.19239,120.09522 30.19239,120.09522 16.66104,-31.56737 46.04131,-90.47548 52.36928,-102.57705 5.54992,-10.61364 13.93356,-27.6121 23.62253,-31.08755 9.31893,-3.98477 16.87181,10.44372 18.9319,18.4459 6.69812,25.77357 10.32418,62.00318 9.9658,94.87903 -0.18015,16.52523 0.81139,19.23472 0.81139,19.23472 3.17515,22.89249 18.37021,38.311 43.2322,32.71592 34.50186,-9.47524 10.52606,-50.05117 4.11631,-55.57736 -4.96327,3.35426 -11.5071,-1.88985 -14.38512,-23.02693 -3.13326,-23.01167 -6.37416,-70.75977 -6.37416,-70.75977 -1.49939,-45.7627 -0.82583,-77.95201 -21.00658,-88.14794 -13.18434,-6.66113 -25.33465,6.05656 -32.87519,11.5719 -27.48342,23.42314 -42.88647,57.90193 -54.14343,80.05968 -4.23554,8.33708 -12.46874,32.91026 -12.46874,32.91026 5.9387,-72.69629 -15.02096,-125.80745 -39.94121,-157.29756 -31.30206,-35.699136 -70.12628,-21.306467 -95.676,49.44835 -15.090671,41.79058 -22.216531,62.52552 -18.224341,125.56681 1.01233,37.09633 -0.33102,42.90421 -3.38042,43.19277 C 81.791486,330.25032 72.26827,288.3035 69.289485,276.8415 61.711439,247.68204 46.872703,171.37695 46.801057,170.99495 z"
	style="fill:#ffffff;fill-opacity:1;fill-rule:evenodd;stroke:#000000;stroke-width:0;stroke-linecap:butt;stroke-linejoin:miter;stroke-miterlimit:4;stroke-opacity:1;stroke-dasharray:none" />
</g>
<path id="path3086"
      style="fill:url(#radialGradient3862);fill-opacity:1;fill-rule:evenodd;stroke:none"
      d="m 38.366199,34.366196 a 4.2253523,4.2253523 0 1 1 -8.450705,0 4.2253523,4.2253523 0 1 1 8.450705,0 z"
      transform="matrix(10.666667,0,0,10.666667,2.5747554,-9.4140231)" />
<g id="pen"
   transform="matrix(0.83505988,-0.29412357,0.29412357,0.83505988,67.230053,12.214486)">
  <path id="pen_ring_tip_outline"
	d="m 279.476,404.243 c -0.007,-0.004 -7.446,-4.112 -16.804,-11.401 l 0,0 c -8.082,-6.285 -13.538,-12.214 -13.544,-12.22 l 0,0 -0.122,-0.133 3.646,-4.669 0.157,-0.205 0.169,0.197 c 0.017,0.01 5.4,6.295 13.725,12.78 l 0,0 c 7.913,6.157 16.594,10.586 16.612,10.595 l 0,0 0.229,0.117 -3.911,5.026 -0.157,-0.087 0,0 z m -16.542,-11.737 c 8.545,6.656 15.469,10.644 16.589,11.275 l 0,0 3.372,-4.334 c -1.423,-0.743 -9.253,-4.919 -16.453,-10.521 l 0,0 c -7.504,-5.845 -12.637,-11.533 -13.614,-12.645 l 0,0 -3.264,4.184 c 0.849,0.905 6.01,6.32 13.37,12.041 l 0,0 z"
	style="fill:#4d4d4d" />
  <rect id="pen_shadow"
	width="378.89471"
	height="389.88782"
	x="129.8893"
	y="112.05299"
	style="fill:url(#pen_shadow_radialGradient);fill-opacity:1;stroke:#4a4a4a;stroke-width:0;stroke-miterlimit:4;stroke-opacity:1;stroke-dasharray:none" />
  <path id="pen_main"
	d="m 279.41935,402.42925 c 0,0 53.22674,-57.10351 105.32613,-119.98356 l 2.27572,0.70267 c 0,0 108.04858,-118.41295 81.61943,-127.99999 0,0 -13.21457,-26.17004 -116.85829,99.75708 l -0.19931,1.88973 c -47.81988,55.1486 -100.95309,122.38959 -100.95309,122.38959 -41.04082,58.99617 -65.40881,102.60205 -63.39341,106.81606 2.73952,5.7281 92.34185,-82.99773 92.18282,-83.57158 z"
	style="fill:url(#pen_main_radialGradient);fill-opacity:1;fill-rule:evenodd;stroke:#000030;stroke-width:0.5;stroke-linecap:butt;stroke-linejoin:miter;stroke-miterlimit:4;stroke-opacity:1;stroke-dasharray:none" />
  <path id="pen_ring_tip_main"
	d="m 248.88937,380.28407 c 11.63434,11.90918 30.5974,24.00156 30.5974,24.00156 l 3.75596,-4.76367 c -12.86808,-6.7251 -30.78061,-23.81833 -30.78061,-23.81833 l -3.57275,4.58044 z"
	style="fill:url(#pen_ring_tip_main_radialGradient);fill-opacity:1;fill-rule:evenodd;stroke:#606060;stroke-width:0.5;stroke-linecap:butt;stroke-linejoin:miter;stroke-miterlimit:4;stroke-opacity:1;stroke-dasharray:none" />
  <path id="pen_ring_clip"
	d="m 349.52184,256.42873 c 20.52041,13.1001 36.64359,28.94845 36.64359,28.94845 l 2.74826,-3.20632 C 377.9694,270.59048 352.22755,253.07064 352.22755,253.07064 l -2.70571,3.35809 z"
	style="fill:url(#pen_ring_clip_radialGradient);fill-opacity:1;fill-rule:evenodd;stroke:#606060;stroke-width:0.5;stroke-linecap:butt;stroke-linejoin:miter;stroke-miterlimit:4;stroke-opacity:1;stroke-dasharray:none" />
  <path id="pen_clip"
	d="m 462.24667,151.81129 c 10.80986,0.91608 12.64205,10.44342 12.64205,10.44342 -49.28564,51.30103 -121.47351,125.87074 -121.47351,125.87074 l -3.66436,-3.11471 C 413.32748,208.79208 462.24667,151.81129 462.24667,151.81129"
	style="fill:url(#pen_clip_radialGradient);fill-opacity:1;fill-rule:evenodd;stroke:#4a4a4a;stroke-width:0.60000002;stroke-linecap:butt;stroke-linejoin:miter;stroke-miterlimit:4;stroke-opacity:1;stroke-dasharray:none" />
</g>
</svg>
